Coordinates
version=1
nRows=6
nColumns=63
inDegrees=yes

Units are S.I. units (second, meters, Newtons, ...)
If the header above contains a line with 'inDegrees', this indicates whether rotational values are in degrees (yes) or radians (no).

endheader
time	pelvis_tilt	pelvis_list	pelvis_rotation	pelvis_tx	pelvis_ty	pelvis_tz	hip_flexion_r	hip_adduction_r	hip_rotation_r	knee_angle_r	knee_angle_r_beta	ankle_angle_r	subtalar_angle_r	mtp_angle_r	hip_flexion_l	hip_adduction_l	hip_rotation_l	knee_angle_l	knee_angle_l_beta	ankle_angle_l	subtalar_angle_l	mtp_angle_l	L5_S1_Flex_Ext	L5_S1_Lat_Bending	L5_S1_axial_rotation	L4_L5_Flex_Ext	L4_L5_Lat_Bending	L4_L5_axial_rotation	L3_L4_Flex_Ext	L3_L4_Lat_Bending	L3_L4_axial_rotation	L2_L3_Flex_Ext	L2_L3_Lat_Bending	L2_L3_axial_rotation	L1_L2_Flex_Ext	L1_L2_Lat_Bending	L1_L2_axial_rotation	L1_T12_Flex_Ext	L1_T12_Lat_Bending	L1_T12_axial_rotation	Abs_r3	Abs_r2	Abs_r1	Abs_t1	Abs_t2	neck_flexion	neck_bending	neck_rotation	arm_flex_r	arm_add_r	arm_rot_r	elbow_flex_r	pro_sup_r	wrist_flex_r	wrist_dev_r	arm_flex_l	arm_add_l	arm_rot_l	elbow_flex_l	pro_sup_l	wrist_flex_l	wrist_dev_l
     14.96666667	      0.52721104	      7.70786290	    -30.57774225	     -1.75406903	      0.85389560	      0.34918241	     -5.30951476	     -7.72798913	     23.31537116	     12.79290156	      0.22327825	     15.94991753	    -17.44127862	      0.00000000	     21.62807613	    -10.43858445	    -31.03349148	     31.63378817	      0.55211376	     -0.44655100	    -18.76935419	      0.00000000	      0.00411504	     -0.94522506	      3.95004721	      0.00764204	     -1.25714933	      4.19692516	      0.00676060	     -2.29822021	      4.19692516	      0.00470308	     -2.29822021	      3.45629131	      0.00382123	     -1.92750294	      3.20941336	      0.00235133	     -1.46415362	      2.96253540	      0.02939333	    -10.69257491	     21.96897755	      0.00000000	      0.00000000	     -0.00000000	      0.00000000	     -0.00000000	     -5.15629066	      3.60452102	    -10.30279592	     27.24444572	     29.41034071	      0.00000000	      5.00000014	    -10.44432242	      2.47405743	    -25.36436313	     29.87544253	     30.92665571	      0.00000000	      5.00000014
     15.00000000	      0.53141801	      7.72151342	    -30.58232055	     -1.75407122	      0.85389789	      0.34919576	     -5.30389910	     -7.73984899	     23.31626318	     12.79712236	      0.22335192	     15.95590484	    -17.45316819	      0.00000000	     21.62190670	    -10.42283047	    -31.04987119	     31.61662636	      0.55181423	     -0.45322599	    -18.76451033	      0.00000000	      0.00412888	     -0.94696296	      3.95159766	      0.00766774	     -1.25946073	      4.19857251	      0.00678333	     -2.30244573	      4.19857251	      0.00471889	     -2.30244573	      3.45764795	      0.00383408	     -1.93104686	      3.21067310	      0.00235924	     -1.46684562	      2.96369825	      0.02949216	    -10.71223436	     21.97760071	      0.00000000	      0.00000000	     -0.00000000	      0.00000000	     -0.00000000	     -5.15197655	      3.61770890	    -10.32995375	     27.24329265	     29.26105874	      0.00000000	      5.00000014	    -10.45282158	      2.43024637	    -25.16317264	     29.87181064	     30.99270447	      0.00000000	      5.00000014
     15.03333333	      0.53745768	      7.74793498	    -30.57234646	     -1.75406491	      0.85390431	      0.34924365	     -5.29891036	     -7.76717120	     23.24545943	     12.80107195	      0.22342085	     15.98483870	    -17.37547401	      0.00000000	     21.62039278	    -10.38173812	    -31.02122075	     31.58172186	      0.55120503	     -0.52047849	    -18.79338505	      0.00000000	      0.00471311	     -0.95111510	      3.94967128	      0.00875271	     -1.26498309	      4.19652574	      0.00774316	     -2.31254127	      4.19652574	      0.00538661	     -2.31254127	      3.45596237	      0.00437659	     -1.93951392	      3.20910792	      0.00269307	     -1.47327730	      2.96225346	      0.03366525	    -10.75920429	     21.96688678	      0.00000000	      0.00000000	     -0.00000000	      0.00000000	     -0.00000000	     -5.15090540	      3.66493689	    -10.50750852	     27.23354647	     29.57588196	      0.00000000	      5.00000014	    -10.48234229	      2.42017607	    -25.20965394	     29.94982036	     31.30374300	      0.00000000	      5.00000014
     15.06666667	      0.52485106	      7.71102405	    -30.55642551	     -1.75407667	      0.85391005	      0.34916253	     -5.30490791	     -7.72202262	     23.28867400	     12.80384206	      0.22346920	     15.93774237	    -17.47573652	      0.00000000	     21.63745566	    -10.43396491	    -31.02584104	     31.63638535	      0.55215909	     -0.45079086	    -18.75765457	      0.00000000	      0.00396912	     -0.94504743	      3.94723298	      0.00737105	     -1.25691309	      4.19393504	      0.00652086	     -2.29778833	      4.19393504	      0.00453631	     -2.29778833	      3.45382885	      0.00368572	     -1.92714073	      3.20712679	      0.00226795	     -1.46387847	      2.96042473	      0.02835101	    -10.69056557	     21.95332565	      0.00000000	      0.00000000	     -0.00000000	      0.00000000	     -0.00000000	     -5.15908636	      3.65006538	    -10.41013364	     27.29274343	     28.02975135	      0.00000000	      5.00000014	    -10.42869359	      2.41874745	    -24.99132061	     29.80333240	     29.85889639	      0.00000000	      5.00000014
     15.10000000	      0.53315991	      7.73340534	    -30.61130600	     -1.75409711	      0.85389780	      0.34923034	     -5.28735619	     -7.75051103	     23.34528407	     12.80796804	      0.22354121	     15.96370884	    -17.45728338	      0.00000000	     21.60278434	    -10.40682390	    -31.05491788	     31.58044045	      0.55118267	     -0.45459265	    -18.76463354	      0.00000000	      0.00409548	     -0.94897754	      3.95451389	      0.00760571	     -1.26214013	      4.20167101	      0.00672846	     -2.30734400	      4.20167101	      0.00468072	     -2.30734400	      3.46019966	      0.00380306	     -1.93515500	      3.21304254	      0.00234016	     -1.46996621	      2.96588542	      0.02925359	    -10.73502375	     21.99381992	      0.00000000	      0.00000000	     -0.00000000	      0.00000000	     -0.00000000	     -5.14600473	      3.56781283	    -10.11114069	     27.20925886	     29.66758943	      0.00000000	      5.00000014	    -10.43693398	      2.48852145	    -25.56612591	     29.87915190	     31.50186658	      0.00000000	      5.00000014
     15.13333333	      0.53992016	      7.73035542	    -30.60902732	     -1.75406944	      0.85390833	      0.34922156	     -5.30388517	     -7.76097187	     23.31211216	     12.79082774	      0.22324206	     15.96494372	    -17.40881958	      0.00000000	     21.60339992	    -10.41579102	    -31.08222964	     31.60170444	      0.55155379	     -0.45326207	    -18.76682961	      0.00000000	      0.00396584	     -0.94826034	      3.95630071	      0.00736496	     -1.26118626	      4.20356950	      0.00651548	     -2.30560020	      4.20356950	      0.00453256	     -2.30560020	      3.46176312	      0.00368268	     -1.93369249	      3.21449433	      0.00226608	     -1.46885527	      2.96722553	      0.02832759	    -10.72691065	     22.00375766	      0.00000000	      0.00000000	     -0.00000000	      0.00000000	     -0.00000000	     -5.15405778	      3.63852345	    -10.50283297	     27.22778643	     30.04666753	      0.00000000	      5.00000014	    -10.45045870	      2.45534268	    -25.42535577	     29.86971464	     32.03054686	      0.00000000	      5.00000014
